<svg width="383" height="375" viewBox="0 0 383 375" fill="none" xmlns="http://www.w3.org/2000/svg">
<path d="M284.55 31.5219C311.118 56.1219 324.648 93.0219 342.36 128.692C360.072 164.608 381.72 199.294 382.212 234.472C382.458 269.65 361.302 305.32 333.258 331.15C305.214 356.98 270.036 372.724 236.088 374.446C201.894 376.168 169.176 363.622 139.656 349.846C110.382 336.316 84.3063 321.802 58.9683 301.63C33.6303 281.704 9.03034 255.874 2.14234 225.862C-4.74566 196.096 6.32435 161.902 24.7744 134.842C42.9784 108.028 68.5623 88.3479 95.8683 64.2399C122.928 39.8859 151.464 11.3499 185.166 2.98593C219.114 -5.13207 258.228 7.16793 284.55 31.5219Z" fill="#F7E6DF"/>
</svg>
