<svg width="1728" height="138" viewBox="0 0 1728 138" fill="none" xmlns="http://www.w3.org/2000/svg">
<path d="M1728 0L1680 3.56627C1632 7.28762 1536 14.4202 1440 21.2427C1344 27.9101 1248 34.1124 1152 44.5011C1056 54.7348 960 69.3101 864 74.8921C768 80.6292 672 77.5281 576 72.5663C480 67.7595 384 60.9371 288 54.5798C192 48.0674 96 41.8652 48 38.764L0 35.6629V138H48C96 138 192 138 288 138C384 138 480 138 576 138C672 138 768 138 864 138C960 138 1056 138 1152 138C1248 138 1344 138 1440 138C1536 138 1632 138 1680 138H1728V0Z" fill="#F6EFE9"/>
</svg>
