<svg width="1725" height="140" viewBox="0 0 1725 140" fill="none" xmlns="http://www.w3.org/2000/svg">
<path d="M1725 0L1677 3.61796C1629 7.39324 1533 14.6292 1437 21.5506C1341 28.3146 1245 34.6068 1149 45.1461C1053 55.5281 957 70.3146 861 75.9775C765 81.7977 669 78.6517 573 73.618C477 68.7416 381 61.8202 285 55.3708C189 48.7641 93 42.4719 45 39.3258L-2.99996 36.1798V140H45C93 140 189 140 285 140C381 140 477 140 573 140C669 140 765 140 861 140C957 140 1053 140 1149 140C1245 140 1341 140 1437 140C1533 140 1629 140 1677 140H1725V0Z" fill="#F6EFE9"/>
</svg>
